<svg fill="#0e223d" xmlns="http://www.w3.org/2000/svg" width="26" height="16">
  <rect   width="1" height="3"/>
  <rect   x="2" width="1" height="3"/>
  <rect   y="2" width="10" height="1"/>
  <rect   x="8" y="2" width="2" height="4"/>
  <rect   width="14" height="1"/>
  <rect   x="14" y="1" width="1" height="1"/>
  <rect   x="15" y="2" width="1" height="4"/>
  <rect   x="2" y="4" width="19" height="2"/>
  <rect   x="2" y="5" width="2" height="11"/>
  <rect   x="3" y="15" width="18" height="1"/>
  <rect   x="20" y="5" width="1" height="11"/>
  <rect   x="16" y="5" width="1" height="10"/>
  <rect   x="16" y="10" width="5" height="6"/>
  <rect   x="16" y="8" width="5" height="1"/>
  <rect   x="18" y="8" width="1" height="3"/>
  <rect   x="4" y="13" width="13" height="1"/>
  <rect   x="3" y="13" width="3" height="3"/>
  <rect   x="14" y="13" width="3" height="2"/>
  <rect   x="14" y="7" width="1" height="5"/>
  <rect   x="5" y="7" width="10" height="1"/>
  <rect   x="5" y="7" width="1" height="5"/>
  <rect   x="5" y="11" width="10" height="1"/>
  <rect   x="13" y="10" width="2" height="2"/>
  <rect   x="13" y="7" width="2" height="2"/>
  <rect   x="5" y="7" width="3" height="2"/>
  <rect   x="5" y="10" width="2" height="2"/>
  <rect   x="8" y="10" width="4" height="1"/>
  <rect   x="9" y="9" width="2" height="1"/>
  <rect   x="8" y="8" width="4" height="1"/>
  <rect   x="12" y="9" width="1" height="1"/>
  <rect   x="7" y="9" width="1" height="1"/>
  <rect   x="21" y="7" width="1" height="1"/>
  <rect   x="22" y="6" width="2" height="1"/>
  <rect   x="23" y="5" width="1" height="3"/>
  <rect   x="23" y="9" width="1" height="4"/>
  <rect   x="21" y="12" width="1" height="1"/>
  <rect   x="22" y="13" width="1" height="1"/>
  <rect   x="23" y="14" width="1" height="1"/>
  <rect   x="24" y="15" width="2" height="1"/>
  <rect   x="25" y="4" width="1" height="12"/>
  <rect   x="24" y="4" width="2" height="1"/>
</svg>
