<svg id="SvgjsSvg1096" width="288" height="288" xmlns="http://www.w3.org/2000/svg" version="1.1" xmlns:xlink="http://www.w3.org/1999/xlink" xmlns:svgjs="http://svgjs.com/svgjs"><defs id="SvgjsDefs1097"></defs><g id="SvgjsG1098"><svg xmlns="http://www.w3.org/2000/svg" viewBox="0 0 26 16" width="288" height="288"><rect width="1" height="3" fill="#ffffff" class="svgShape color0e223d-0 selectable"></rect><rect width="1" height="3" x="2" fill="#ffffff" class="svgShape color0e223d-1 selectable"></rect><rect width="10" height="1" y="2" fill="#ffffff" class="svgShape color0e223d-2 selectable"></rect><rect width="2" height="4" x="8" y="2" fill="#ffffff" class="svgShape color0e223d-3 selectable"></rect><rect width="14" height="1" fill="#ffffff" class="svgShape color0e223d-4 selectable"></rect><rect width="1" height="1" x="14" y="1" fill="#ffffff" class="svgShape color0e223d-5 selectable"></rect><rect width="1" height="4" x="15" y="2" fill="#ffffff" class="svgShape color0e223d-6 selectable"></rect><rect width="19" height="2" x="2" y="4" fill="#ffffff" class="svgShape color0e223d-7 selectable"></rect><rect width="2" height="11" x="2" y="5" fill="#ffffff" class="svgShape color0e223d-8 selectable"></rect><rect width="18" height="1" x="3" y="15" fill="#ffffff" class="svgShape color0e223d-9 selectable"></rect><rect width="1" height="11" x="20" y="5" fill="#ffffff" class="svgShape color0e223d-10 selectable"></rect><rect width="1" height="10" x="16" y="5" fill="#ffffff" class="svgShape color0e223d-11 selectable"></rect><rect width="5" height="6" x="16" y="10" fill="#ffffff" class="svgShape color0e223d-12 selectable"></rect><rect width="5" height="1" x="16" y="8" fill="#ffffff" class="svgShape color0e223d-13 selectable"></rect><rect width="1" height="3" x="18" y="8" fill="#ffffff" class="svgShape color0e223d-14 selectable"></rect><rect width="13" height="1" x="4" y="13" fill="#ffffff" class="svgShape color0e223d-15 selectable"></rect><rect width="3" height="3" x="3" y="13" fill="#ffffff" class="svgShape color0e223d-16 selectable"></rect><rect width="3" height="2" x="14" y="13" fill="#ffffff" class="svgShape color0e223d-17 selectable"></rect><rect width="1" height="5" x="14" y="7" fill="#ffffff" class="svgShape color0e223d-18 selectable"></rect><rect width="10" height="1" x="5" y="7" fill="#ffffff" class="svgShape color0e223d-19 selectable"></rect><rect width="1" height="5" x="5" y="7" fill="#ffffff" class="svgShape color0e223d-20 selectable"></rect><rect width="10" height="1" x="5" y="11" fill="#ffffff" class="svgShape color0e223d-21 selectable"></rect><rect width="2" height="2" x="13" y="10" fill="#ffffff" class="svgShape color0e223d-22 selectable"></rect><rect width="2" height="2" x="13" y="7" fill="#ffffff" class="svgShape color0e223d-23 selectable"></rect><rect width="3" height="2" x="5" y="7" fill="#ffffff" class="svgShape color0e223d-24 selectable"></rect><rect width="2" height="2" x="5" y="10" fill="#ffffff" class="svgShape color0e223d-25 selectable"></rect><rect width="4" height="1" x="8" y="10" fill="#ffffff" class="svgShape color0e223d-26 selectable"></rect><rect width="2" height="1" x="9" y="9" fill="#ffffff" class="svgShape color0e223d-27 selectable"></rect><rect width="4" height="1" x="8" y="8" fill="#ffffff" class="svgShape color0e223d-28 selectable"></rect><rect width="1" height="1" x="12" y="9" fill="#ffffff" class="svgShape color0e223d-29 selectable"></rect><rect width="1" height="1" x="7" y="9" fill="#ffffff" class="svgShape color0e223d-30 selectable"></rect><rect width="1" height="1" x="21" y="7" fill="#ffffff" class="svgShape color0e223d-31 selectable"></rect><rect width="2" height="1" x="22" y="6" fill="#ffffff" class="svgShape color0e223d-32 selectable"></rect><rect width="1" height="3" x="23" y="5" fill="#ffffff" class="svgShape color0e223d-33 selectable"></rect><rect width="1" height="4" x="23" y="9" fill="#ffffff" class="svgShape color0e223d-34 selectable"></rect><rect width="1" height="1" x="21" y="12" fill="#ffffff" class="svgShape color0e223d-35 selectable"></rect><rect width="1" height="1" x="22" y="13" fill="#ffffff" class="svgShape color0e223d-36 selectable"></rect><rect width="1" height="1" x="23" y="14" fill="#ffffff" class="svgShape color0e223d-37 selectable"></rect><rect width="2" height="1" x="24" y="15" fill="#ffffff" class="svgShape color0e223d-38 selectable"></rect><rect width="1" height="12" x="25" y="4" fill="#ffffff" class="svgShape color0e223d-39 selectable"></rect><rect width="2" height="1" x="24" y="4" fill="#ffffff" class="svgShape color0e223d-40 selectable"></rect></svg></g></svg>